<svg width="100" height="100" viewBox="0 0 100 100" fill="none" xmlns="http://www.w3.org/2000/svg">
<rect width="100" height="100" fill="#029EFE"/>
<path d="M63.0029 22.1168C65.1999 24.1148 66.362 26.5945 66.7639 29.4611C67.3034 33.3101 66.4428 36.7987 63.9998 39.8581C62.2153 42.093 59.9319 43.6237 57.1462 44.3961C56.5096 44.5726 56.4649 44.7304 56.927 45.1916C59.3906 47.6502 61.8645 50.0988 64.3226 52.5628C66.1325 54.3771 67.9677 56.1673 69.7214 58.0359C69.8344 58.1563 70.0025 58.2501 70 58.4576C69.8297 58.5878 69.6317 58.5424 69.4497 58.5431C67.0194 58.5524 64.589 58.5651 62.1587 58.5553C61.0256 58.5508 60.1588 57.9317 59.3937 57.2017C56.7796 54.7079 54.2271 52.152 51.6818 49.5893C51.2346 49.1391 50.8194 48.6507 50.2702 48.2364C50.0964 48.5297 50.1441 48.8071 50.1481 49.0701C50.1919 51.9418 49.1456 54.3699 47.0356 56.3168C44.7952 58.384 42.1393 59.2906 39.0656 58.9184C35.9097 58.5362 33.3912 57.0959 31.5996 54.4883C30.5724 52.9931 30.0625 51.3164 30.0516 49.4988C30.0373 47.1372 29.9772 44.7752 30.0093 42.4143C30.0746 37.6186 30.016 32.8226 30.0683 28.0273C30.0953 25.554 30.7887 23.3084 32.6525 21.5478C34.2083 20.0782 36.0505 19.1812 38.2215 19.1125C43.6509 18.9407 49.0828 19.0091 54.5132 19.0385C57.6812 19.0557 60.5533 20.0039 63.0029 22.1168ZM53.7475 37.72C54.1315 37.7253 54.4997 37.6265 54.8694 37.5451C59.1219 36.6079 60.87 31.4637 58.0639 28.1669C56.8515 26.7425 55.2701 26.0904 53.4366 26.0493C51.7555 26.0117 50.0721 26.0782 48.3897 26.0876C45.4476 26.1039 42.5054 26.1102 39.5632 26.1235C38.486 26.1283 37.9449 26.6611 37.9297 27.7294C37.9004 29.7862 37.8586 31.8429 37.8509 33.8998C37.8352 38.0871 37.8409 42.2745 37.8323 46.4618C37.8307 47.2437 37.8498 48.0297 37.7778 48.8065C37.6509 50.1771 38.6233 51.4612 39.9205 51.5547C41.3356 51.6566 42.6068 50.5268 42.6123 49.1232C42.625 45.8777 42.6174 42.6322 42.6191 39.3866C42.6193 39.0271 42.5071 38.6827 42.5627 38.3094C42.8553 36.346 45.2385 35.1347 47.0351 35.6691C48.0055 35.9578 48.7688 36.5519 49.5221 37.1755C50.0374 37.6021 50.632 37.8051 51.3002 37.805C52.0899 37.8048 52.8803 37.8228 53.7475 37.72Z" fill="black"/>
<path d="M58.5644 72.5023C58.5642 72.0611 58.5581 71.6484 58.5666 71.2362C58.5706 71.0421 58.5199 70.9615 58.3435 70.9637C57.6953 70.9721 57.0469 70.9716 56.3987 70.9623C56.2202 70.9598 56.1748 71.0477 56.1763 71.2379C56.1815 71.9285 56.1705 72.6193 56.1807 73.3098C56.1842 73.5503 56.1121 73.6333 55.9104 73.6203C55.6732 73.605 55.4339 73.6035 55.1969 73.6213C54.982 73.6375 54.9134 73.5494 54.9148 73.2949C54.9232 71.6642 54.9189 70.0334 54.919 68.4027C54.919 68.0381 54.9238 67.6735 54.9177 67.3091C54.9148 67.1367 54.9714 67.0674 55.1194 67.0712C55.3983 67.0782 55.6777 67.081 55.9564 67.07C56.1298 67.0631 56.1851 67.1461 56.1831 67.3415C56.1765 68.0033 56.1874 68.6654 56.1764 69.327C56.1724 69.5716 56.2333 69.6708 56.4544 69.6656C57.0533 69.6518 57.6526 69.6537 58.2515 69.6637C58.4514 69.667 58.5298 69.5898 58.5265 69.3495C58.5172 68.6878 58.531 68.0256 58.5196 67.364C58.5156 67.1312 58.5878 67.06 58.7768 67.0695C59.0389 67.0826 59.3024 67.085 59.5643 67.0687C59.7674 67.056 59.8343 67.1393 59.8321 67.3787C59.8228 68.3667 59.8284 69.3548 59.8284 70.3428C59.8284 71.3309 59.8232 72.319 59.8317 73.307C59.8337 73.5402 59.7759 73.6359 59.5679 73.6227C59.2978 73.6056 59.0264 73.6145 58.7556 73.6179C58.6215 73.6195 58.5624 73.553 58.5645 73.3944C58.5684 73.1067 58.5649 72.8189 58.5644 72.5023Z" fill="#050505"/>
<path d="M35.2736 79.395C35.1843 79.1515 35.0189 79.1066 34.7918 79.1108C34.0743 79.1241 34.0743 79.1156 34.0746 79.8217C34.0748 80.2027 34.0746 80.5838 34.0746 80.9996C33.6836 80.9996 33.3201 81.0009 32.9567 80.9989C32.8073 80.9981 32.7994 80.8864 32.7982 80.7784C32.7955 80.5347 32.7961 80.2909 32.7959 80.0471C32.7943 78.5669 32.7983 77.0868 32.7866 75.6067C32.7845 75.3478 32.8556 75.2577 33.1255 75.2633C33.937 75.2803 34.7491 75.2619 35.5608 75.2737C36.5541 75.2882 37.2314 75.8201 37.3994 76.7619C37.5388 77.5441 37.297 78.4492 36.527 78.864C36.4975 78.8799 36.4745 78.9079 36.4298 78.9463C36.7825 79.6507 37.2649 80.2771 37.7039 80.9987C37.2077 80.9987 36.7746 80.9998 36.3414 80.998C36.2255 80.9975 36.1852 80.9012 36.1359 80.8197C35.8519 80.3502 35.5681 79.8807 35.2736 79.395ZM34.0722 77.1436C34.0725 77.3781 34.0727 77.6127 34.0731 77.8473C34.0733 77.9395 34.0842 78.0357 34.2032 78.0331C34.7059 78.0222 35.2155 78.1066 35.7088 77.9554C36.049 77.8512 36.2579 77.5136 36.2351 77.1433C36.2119 76.7672 36.018 76.5491 35.6415 76.4502C35.3484 76.3732 35.0524 76.4098 34.7579 76.4072C34.072 76.4013 34.072 76.4057 34.0722 77.1436Z" fill="#050505"/>
<path d="M46.9666 72.7921C47.6334 70.9477 48.2931 69.1243 48.9464 67.2985C49.0077 67.1271 49.099 67.0637 49.2752 67.0689C49.6568 67.08 50.0393 67.0825 50.4206 67.0679C50.6205 67.0603 50.7164 67.1366 50.7903 67.3251C51.4663 69.0504 52.1512 70.772 52.8342 72.4943C52.9735 72.8456 53.1157 73.1957 53.2756 73.5936C52.9272 73.5936 52.6171 73.5927 52.3069 73.5939C51.7728 73.5958 51.7726 73.5965 51.572 73.0754C51.4832 72.8448 51.3836 72.6176 51.3114 72.3817C51.2565 72.2022 51.1559 72.1509 50.9821 72.1529C50.2837 72.1606 49.585 72.1631 48.8866 72.1527C48.6938 72.1498 48.6052 72.2206 48.5491 72.4053C48.4498 72.7325 48.3161 73.0488 48.2153 73.3756C48.1572 73.564 48.0519 73.6282 47.867 73.6237C47.4901 73.6146 47.1128 73.621 46.7191 73.621C46.7343 73.2912 46.8877 73.0647 46.9666 72.7921ZM49.5118 69.6234C49.3845 69.961 49.26 70.2997 49.1288 70.6357C49.0651 70.7989 49.1199 70.8695 49.2816 70.8776C49.7521 70.9012 50.2226 70.9326 50.7175 70.8673C50.445 70.1606 50.1772 69.466 49.8809 68.6975C49.7441 69.0423 49.6369 69.3126 49.5118 69.6234Z" fill="#050505"/>
<path d="M41.8167 67.1496C42.5478 67.0168 43.2466 67.0177 43.9119 67.3583C44.5144 67.6668 44.8626 68.1781 44.9828 68.9105C44.561 68.9699 44.1526 68.9445 43.745 68.9277C43.6742 68.9248 43.6554 68.8473 43.6319 68.7902C43.3732 68.1621 42.3307 67.9644 41.7429 68.4202C41.4158 68.6739 41.4427 69.0791 41.7953 69.2925C42.1613 69.5141 42.5763 69.5726 42.9783 69.6709C43.3741 69.7677 43.7577 69.8951 44.1294 70.0741C45.3154 70.6456 45.3974 72.3526 44.3428 73.1072C43.3557 73.8136 41.8343 73.7973 40.8782 73.0487C40.43 72.6977 40.1294 72.1293 40.1655 71.6588C40.5392 71.6588 40.9166 71.6586 41.2939 71.659C41.3659 71.659 41.3891 71.7144 41.4219 71.7725C41.7554 72.3621 42.3298 72.6042 42.9978 72.4469C43.3013 72.3754 43.5819 72.2656 43.7373 71.9527C43.8796 71.666 43.8105 71.4327 43.529 71.2603C43.1647 71.0371 42.7499 70.9766 42.3512 70.8623C41.8886 70.7296 41.4006 70.6857 40.984 70.3897C39.9619 69.6636 39.9839 68.1756 41.032 67.4874C41.2696 67.3314 41.5283 67.2331 41.8167 67.1496Z" fill="#050505"/>
<path d="M65.3627 67.0845C65.5085 67.1056 65.5384 67.2075 65.5764 67.306C66.3478 69.3018 67.1383 71.2893 67.9535 73.2663C67.9919 73.3593 68.0513 73.4504 68.018 73.5917C67.5885 73.6426 67.1526 73.6232 66.7172 73.6016C66.5908 73.5953 66.5699 73.4709 66.5329 73.3776C66.4004 73.0432 66.2682 72.7085 66.1459 72.37C66.0901 72.2153 66.0059 72.1485 65.8405 72.1502C65.1157 72.1578 64.3908 72.1573 63.666 72.1507C63.4896 72.1492 63.4019 72.2241 63.3465 72.3933C63.2344 72.7354 63.1049 73.0714 62.9843 73.4106C62.9481 73.5126 62.9091 73.6126 62.7843 73.6133C62.3566 73.6156 61.929 73.6142 61.4713 73.6142C61.5649 73.1788 61.7367 72.8218 61.8787 72.4564C62.5233 70.7975 63.185 69.1457 63.8244 67.4846C63.9386 67.1879 64.073 67.0352 64.4032 67.0731C64.7114 67.1084 65.0263 67.0818 65.3627 67.0845ZM64.6517 68.9559C64.4252 69.5948 64.1287 70.207 63.9351 70.9068C64.4855 70.9012 64.9982 70.9367 65.5564 70.8801C65.2996 70.1976 65.0604 69.5608 64.8201 68.9245C64.7729 68.7995 64.7201 68.7993 64.6517 68.9559Z" fill="#050505"/>
<path d="M35.7564 72.3623C36.5404 72.2891 36.9278 71.8973 37.0251 71.1585C37.1184 70.4493 37.0647 69.7394 37.0779 69.03C37.0885 68.4596 37.0846 67.8889 37.0782 67.3184C37.0763 67.14 37.1427 67.0632 37.3311 67.0676C37.6498 67.0751 37.969 67.0729 38.2878 67.0682C38.4467 67.0658 38.5124 67.1295 38.5121 67.2847C38.5089 68.6409 38.5478 69.9985 38.4977 71.353C38.4529 72.566 37.2961 73.5905 36.0395 73.6142C35.6551 73.6214 35.27 73.6473 34.8854 73.5668C33.8005 73.3397 33.1162 72.6753 32.9064 71.6184C32.828 71.2237 32.7843 70.8261 32.7866 70.4225C32.7924 69.4311 32.7875 68.4396 32.7877 67.4481C32.7878 67.0693 32.7887 67.0692 33.1919 67.0688C33.4045 67.0686 33.6172 67.0685 33.8298 67.069C34.2168 67.07 34.2182 67.0702 34.2184 67.4348C34.2192 68.5198 34.2213 69.6048 34.2166 70.6898C34.2156 70.9167 34.2564 71.1364 34.3047 71.3544C34.4252 71.898 34.8532 72.4055 35.7564 72.3623Z" fill="#050505"/>
<path d="M50.5982 80.9825C50.0905 81.0594 49.7877 80.8787 49.5205 80.5217C49.08 79.9332 48.5768 79.3817 48.0985 78.8156C48.0592 78.769 48.0314 78.7087 47.9565 78.693C47.5469 78.9703 47.2503 79.2824 47.3339 79.7943C47.3837 80.0987 47.3348 80.4149 47.3457 80.7254C47.3522 80.9114 47.2827 80.9935 47.0625 80.9847C46.7713 80.9731 46.4786 80.9729 46.1874 80.9843C45.9707 80.9928 45.8998 80.9176 45.9016 80.7288C45.9093 79.926 45.9044 79.1231 45.9044 78.3203C45.9043 77.4052 45.9111 76.49 45.8996 75.5751C45.897 75.3656 45.9671 75.2769 46.2069 75.2804C46.4981 75.2846 46.7897 75.2715 47.0811 75.2633C47.2814 75.2577 47.349 75.341 47.3463 75.5165C47.3374 76.0861 47.3421 76.656 47.3446 77.2257C47.3448 77.291 47.3188 77.3638 47.3847 77.4237C47.5078 77.4145 47.5575 77.3199 47.6248 77.2535C48.2101 76.676 48.7958 76.0988 49.3707 75.5132C49.5236 75.3575 49.6839 75.2824 49.922 75.2898C50.3955 75.3045 50.8699 75.2942 51.3417 75.2942C51.3626 75.4288 51.265 75.4745 51.2034 75.5344C50.4958 76.2232 49.7919 76.915 49.072 77.5935C48.9123 77.7441 48.9356 77.8384 49.0631 77.9845C49.8131 78.8439 50.5544 79.7095 51.2978 80.5735C51.3916 80.6825 51.481 80.7945 51.6365 80.9825C51.2487 80.9825 50.9379 80.9825 50.5982 80.9825Z" fill="#050505"/>
<path d="M62.3675 79.0675C62.6137 79.7026 62.8518 80.3192 63.1104 80.9888C62.6723 80.9888 62.2773 80.9919 61.8823 80.9867C61.778 80.9853 61.7541 80.8856 61.7234 80.8062C61.6145 80.525 61.4988 80.2461 61.403 79.9604C61.3509 79.8052 61.2718 79.7421 61.1072 79.7441C60.5016 79.7518 59.8958 79.7522 59.2902 79.7438C59.1227 79.7415 59.0482 79.8084 59.0006 79.9641C58.9174 80.2357 58.8086 80.4992 58.7213 80.7697C58.6693 80.9306 58.5854 81.0063 58.4074 80.9996C58.0679 80.9868 57.7276 80.9959 57.4021 80.9959C57.3439 80.8984 57.3886 80.8377 57.4117 80.7768C58.0812 79.0131 58.7538 77.2505 59.4183 75.4849C59.4773 75.3281 59.5636 75.267 59.7194 75.2683C60.052 75.2709 60.3851 75.2766 60.7173 75.2635C60.8941 75.2566 60.9716 75.3297 61.0312 75.4916C61.4689 76.6794 61.9156 77.8637 62.3675 79.0675ZM60.8034 78.6717C60.9009 78.6595 60.907 78.5998 60.8781 78.523C60.6652 77.9576 60.4521 77.3922 60.2173 76.7688C59.953 77.4332 59.6845 78.0209 59.4755 78.6738C59.9329 78.6738 60.3479 78.6738 60.8034 78.6717Z" fill="#050505"/>
<path d="M41.6178 75.266C41.9314 75.2661 42.2165 75.2738 42.5007 75.2636C42.6861 75.2569 42.7864 75.318 42.8505 75.4736C43.5763 77.2374 44.3078 78.9993 45.0362 80.7622C45.0623 80.8253 45.109 80.8885 45.0552 80.997C44.6351 80.997 44.1969 80.9995 43.7587 80.9954C43.6365 80.9942 43.6101 80.8975 43.5751 80.816C43.4567 80.5397 43.3291 80.2662 43.2224 79.9864C43.1572 79.8156 43.0627 79.7361 42.8424 79.7404C42.1653 79.7533 41.4876 79.7501 40.8103 79.742C40.6236 79.7397 40.5246 79.7944 40.4665 79.9536C40.361 80.243 40.2341 80.5262 40.1184 80.8126C40.0809 80.9054 40.046 80.999 39.9088 80.9993C39.4614 81.0005 39.014 80.9998 38.5235 80.9998C38.7707 80.4326 38.9957 79.9063 39.2292 79.3831C39.7813 78.1458 40.3349 76.9091 40.8933 75.6741C41.0791 75.2633 41.0867 75.2661 41.6178 75.266ZM41.8472 76.871C41.5518 77.4453 41.2553 78.0192 41.0071 78.6381C41.5735 78.6381 42.1018 78.6381 42.6441 78.6381C42.6372 78.5777 42.6411 78.5419 42.6285 78.5116C42.4021 77.9651 42.1737 77.4192 41.9456 76.8733C41.9304 76.8369 41.9112 76.8076 41.8472 76.871Z" fill="#050505"/>
<path d="M64.902 77.6091C64.9015 77.2815 64.8956 76.9796 64.9025 76.6779C64.9066 76.5021 64.8379 76.4318 64.6504 76.4356C64.2214 76.4443 63.792 76.4321 63.363 76.4399C63.1804 76.4432 63.103 76.3832 63.1109 76.2016C63.1215 75.9606 63.1186 75.7187 63.1119 75.4774C63.1076 75.3215 63.1772 75.2633 63.3353 75.2635C64.8286 75.2657 66.3218 75.2651 67.8151 75.2631C67.9602 75.2629 68.0287 75.3191 68.0266 75.4624C68.023 75.7124 68.0212 75.9626 68.0276 76.2125C68.0318 76.3781 67.961 76.4425 67.7883 76.4396C67.3592 76.4325 66.9297 76.4458 66.5009 76.4329C66.2787 76.4262 66.2065 76.5015 66.2078 76.7155C66.2156 78.0088 66.2118 79.3022 66.2114 80.5955C66.2114 80.9948 66.2108 80.9949 65.7835 80.9954C65.5778 80.9956 65.3712 80.9829 65.1668 80.9983C64.933 81.016 64.9024 80.8932 64.9029 80.7132C64.9054 79.6872 64.9028 78.6611 64.902 77.6091Z" fill="#050505"/>
<path d="M55.3218 75.2646C55.6658 75.2647 55.9804 75.2691 56.2948 75.2637C56.4763 75.2606 56.5487 75.3225 56.5481 75.4732C56.544 76.6099 56.5711 77.7471 56.5343 78.8829C56.5114 79.5917 56.2721 80.2534 55.487 80.6658C54.2995 81.2896 52.1481 81.1129 51.6707 79.5128C51.6439 79.4229 51.6122 79.3351 51.6652 79.2095C52.1059 79.2095 52.5587 79.209 53.0115 79.2099C53.134 79.2102 53.1444 79.3013 53.1805 79.3663C53.4099 79.7792 53.6916 79.9101 54.247 79.8577C54.6315 79.8215 54.8985 79.575 54.9887 79.185C55.0328 78.9939 55.0498 78.8029 55.0492 78.6085C55.0459 77.5813 55.0485 76.5541 55.0465 75.527C55.0463 75.3821 55.0475 75.2472 55.3218 75.2646Z" fill="#050505"/>
</svg>
